<?xml version="1.0" encoding="UTF-8"?>
<svg width="442px" height="136px" viewBox="0 0 442 136" version="1.1" xmlns="http://www.w3.org/2000/svg" xmlns:xlink="http://www.w3.org/1999/xlink">
    <title>编组</title>
    <g id="页面-1" stroke="none" stroke-width="1" fill="none" fill-rule="evenodd">
        <g id="编组" transform="translate(-172, -463)">
            <g id="LOGO" transform="translate(50, 399)">
                <g id="编组" transform="translate(122, 64)">
                    <g id="KAYA" transform="translate(167, 9)" fill="#FFFFFF">
                        <path d="M242.90157,2 L271,70 L257,70 L250.456408,54 L221.543592,54 L215,70 L201,70 L229.09843,2 L242.90157,2 Z M236.173806,17 L225,44 L247,44 L236.173806,17 Z" id="2A"></path>
                        <path d="M171,33.68 L188.5,2 L206,2 L178.002519,46 L163.997481,46 L136,2 L153.5,2 L171,33.68 Z M164,46 L178,46 L178,70 L164,70 Z" id="形状结合"></path>
                        <path d="M111.90157,2 L140,70 L126,70 L119.456408,54 L90.5435918,54 L84,70 L70,70 L98.0984299,2 L111.90157,2 Z M105.173806,17 L94,44 L116,44 L105.173806,17 Z" id="1A"></path>
                        <path d="M15,70 L1,70 L1,2 L15,2 L15,29.629 L24.8685744,29.6293809 C26.7726087,29.628591 28.5957021,28.8487093 29.9246095,27.4665135 L30.4184958,26.9449482 C34.0862286,23.0379556 39.9729334,14.7229729 48.0786102,2 L63,2 L53.4690246,15.9860362 C46.9268813,25.5382053 43.1193213,30.9617003 42.0463447,32.2565212 C41.3032005,33.1533149 40.434116,33.8302487 39.4390912,34.2873238 C40.9866644,34.9742449 42.500189,36.1323824 43.97916,37.7598242 L44.1462209,37.9528445 L44.4020585,38.2735026 C46.1684517,40.5632227 50.6462556,47.6945159 57.8354702,59.6673822 L58.4324701,60.6623558 C60.1412694,63.5123378 61.9971127,66.6248858 64,70 L48.663864,70 L33.1466925,44.7938588 C31.5326981,42.1720813 28.688049,40.577207 25.6257898,40.577207 L15,40.577207 L15,70 Z" id="形状结合"></path>
                    </g>
                    <g id="下" transform="translate(50, 85.832)" fill="#38D200">
                        <path d="M18,1.16798401 L42,1.16798401 C55.8071187,1.16798401 67,12.3608653 67,26.167984 L67,26.167984 L67,26.167984 L18,26.167984 L18,1.16798401 Z" id="矩形"></path>
                        <path d="M18,25.167984 L42,25.167984 C55.8071187,25.167984 67,36.3608653 67,50.167984 L67,50.167984 L67,50.167984 L18,50.167984 L18,25.167984 Z" id="矩形" transform="translate(42.5, 37.668) scale(-1, -1) translate(-42.5, -37.668)"></path>
                        <polygon id="三角形" points="63.2471619 13 85 50.167984 53 50.167984"></polygon>
                        <polygon id="三角形" transform="translate(16, 19.584) scale(-1, -1) translate(-16, -19.584)" points="10.2471619 1 32 38.167984 0 38.167984"></polygon>
                    </g>
                    <g id="上" transform="translate(0, -1)" fill="#0473EA">
                        <polygon id="三角形" points="41.2438717 21.0047953 41 85 0 85"></polygon>
                        <polygon id="三角形" transform="translate(96, 33.0444) rotate(180) translate(-96, -33.0444)" points="116.28822 1.00061433 117 64.9743401 75 65.0888636"></polygon>
                        <path d="M82,1 L82,43 C82,66.1959595 63.1959595,85 40,85 L35,85 L35,43 C35,19.8040405 53.8040405,1 77,1 L82,1 Z" id="形状结合"></path>
                    </g>
                    <text id="开亚-LOGINET-INC." font-family="PingFangSC-Semibold, PingFang SC" font-size="32" font-weight="500" letter-spacing="-1" fill="#FFFFFF">
                        <tspan x="168" y="124">开亚 LOGINET INC.</tspan>
                    </text>
                </g>
            </g>
        </g>
    </g>
</svg>