<?xml version="1.0" encoding="UTF-8"?>
<svg width="475px" height="136px" viewBox="0 0 475 136" version="1.1" xmlns="http://www.w3.org/2000/svg" xmlns:xlink="http://www.w3.org/1999/xlink">
    <title>编组</title>
    <g id="页面-1" stroke="none" stroke-width="1" fill="none" fill-rule="evenodd">
        <g id="编组" transform="translate(-174, -817)">
            <g id="LOGO" transform="translate(50, 753)">
                <g id="编组" transform="translate(124, 64)">
                    <g id="KAYA" transform="translate(167, 20)" fill="#FFFFFF">
                        <path d="M275.887509,2.06270609 L308,79.0627061 L291.995,79.0627061 L284.521609,61.0047297 L251.478391,61.0047297 L244.005,79.0627061 L228,79.0627061 L260.112491,2.06270609 L275.887509,2.06270609 Z M268,19 L255.565323,50 L280.047839,50 L268,19 Z" id="2A"></path>
                        <g id="Y" transform="translate(154, 2)">
                            <path d="M40,36 L60,0 L80,0 L48.0028794,50 L31.9971206,50 L0,0 L20,0 L40,36 Z" id="形状结合"></path>
                            <rect id="矩形-2" x="32" y="49.8" width="16" height="27.2"></rect>
                        </g>
                        <path d="M126.887509,2.06270609 L159,79.0627061 L142.995,79.0627061 L135.521609,61.0047297 L102.478391,61.0047297 L95.005,79.0627061 L79,79.0627061 L111.112491,2.06270609 L126.887509,2.06270609 Z M119,19 L106.565323,50 L131.047839,50 L119,19 Z" id="1A"></path>
                        <g id="K" transform="translate(5, 2.131)">
                            <path d="M49.9189685,2.13162821e-14 L66.8174229,2.13162821e-14 L56.0236057,15.6258508 C48.6146369,26.2979789 44.3025802,32.35736 43.0874356,33.8039943 C41.3692421,35.8495101 39.0565855,36.8712199 36.1494659,36.8691333 L-1.42108547e-14,36.8691333 L-1.42108547e-14,30.8689717 L23.6336332,30.8688308 C25.7899496,30.8679482 27.8546005,29.9966281 29.3595863,28.4523746 C29.3991814,28.4110884 29.4379581,28.3711042 29.4756066,28.3321199 L29.9189119,27.8696576 C34.0726146,23.5045835 40.7393001,14.2146977 49.9189685,2.13162821e-14 Z" id="路径"></path>
                            <path d="M38.43396,36.6223744 C40.4671181,37.3266526 42.4482496,38.7323264 44.3773545,40.8393959 L44.5661257,41.0558876 C46.7639629,43.6786292 54.241921,55.66 67,77 L49.6708585,77 L32.1371552,48.7287741 C30.3134143,45.7881866 27.0990892,43.9993744 23.6388746,43.9993744 L11.6322118,43.9993744 L11.6322118,43.9993744 L11.6322118,36.6223744 L38.43396,36.6223744 Z" id="路径"></path>
                            <rect id="矩形" x="-4" y="-0.131028343" width="16" height="77"></rect>
                        </g>
                    </g>
                    <g id="下" transform="translate(50, 85.832)" fill="#38D200">
                        <path d="M18,1.16798401 L42,1.16798401 C55.8071187,1.16798401 67,12.3608653 67,26.167984 L67,26.167984 L67,26.167984 L18,26.167984 L18,1.16798401 Z" id="矩形"></path>
                        <path d="M18,25.167984 L42,25.167984 C55.8071187,25.167984 67,36.3608653 67,50.167984 L67,50.167984 L67,50.167984 L18,50.167984 L18,25.167984 Z" id="矩形" transform="translate(42.5, 37.668) scale(-1, -1) translate(-42.5, -37.668)"></path>
                        <polygon id="三角形" points="63.2471619 13 85 50.167984 53 50.167984"></polygon>
                        <polygon id="三角形" transform="translate(16, 19.584) scale(-1, -1) translate(-16, -19.584)" points="10.2471619 1 32 38.167984 0 38.167984"></polygon>
                    </g>
                    <g id="上" transform="translate(0, -1)" fill="#0473EA">
                        <polygon id="三角形" points="41.2438717 21.0047953 41 85 0 85"></polygon>
                        <polygon id="三角形" transform="translate(96, 33.0444) rotate(180) translate(-96, -33.0444)" points="116.28822 1.00061433 117 64.9743401 75 65.0888636"></polygon>
                        <path d="M82,1 L82,43 C82,66.1959595 63.1959595,85 40,85 L35,85 L35,43 C35,19.8040405 53.8040405,1 77,1 L82,1 Z" id="形状结合"></path>
                    </g>
                </g>
            </g>
        </g>
    </g>
</svg>